<?xml version="1.0" encoding="UTF-8" standalone="no"?>
<svg
   xmlns:dc="http://purl.org/dc/elements/1.1/"
   xmlns:cc="http://creativecommons.org/ns#"
   xmlns:rdf="http://www.w3.org/1999/02/22-rdf-syntax-ns#"
   xmlns:svg="http://www.w3.org/2000/svg"
   xmlns="http://www.w3.org/2000/svg"
   xmlns:sodipodi="http://sodipodi.sourceforge.net/DTD/sodipodi-0.dtd"
   xmlns:inkscape="http://www.inkscape.org/namespaces/inkscape"
   width="208"
   height="158"
   viewBox="0 0 208 158"
   id="svg2"
   version="1.1"
   inkscape:version="0.48.5 r10040"
   sodipodi:docname="flavored-markdown-mark-solid.svg">
  <metadata
     id="metadata12">
    <rdf:RDF>
      <cc:Work
         rdf:about="">
        <dc:format>image/svg+xml</dc:format>
        <dc:type
           rdf:resource="http://purl.org/dc/dcmitype/StillImage" />
        <dc:title />
      </cc:Work>
    </rdf:RDF>
  </metadata>
  <defs
     id="defs10" />
  <sodipodi:namedview
     pagecolor="#ffffff"
     bordercolor="#666666"
     borderopacity="1"
     objecttolerance="10"
     gridtolerance="10"
     guidetolerance="10"
     inkscape:pageopacity="0"
     inkscape:pageshadow="2"
     inkscape:window-width="1680"
     inkscape:window-height="987"
     id="namedview8"
     showgrid="false"
     inkscape:snap-nodes="true"
     inkscape:snap-bbox="false"
     inkscape:snap-page="false"
     fit-margin-top="0"
     fit-margin-left="0"
     fit-margin-right="0"
     fit-margin-bottom="0"
     inkscape:zoom="1"
     inkscape:cx="49.155381"
     inkscape:cy="100.32178"
     inkscape:window-x="-8"
     inkscape:window-y="-8"
     inkscape:window-maximized="1"
     inkscape:current-layer="svg2">
    <inkscape:grid
       type="xygrid"
       id="grid2992"
       empspacing="5"
       visible="true"
       enabled="true"
       snapvisiblegridlinesonly="true"
       originx="0px"
       originy="0px" />
  </sodipodi:namedview>
  <path
     id="path6"
     d="M 30,128 V 60 H 50 L 70,85 90,60 h 20 v 68 H 90 V 89 L 70,114 50,89 v 39 z m 125,0 -30,-33 h 20 V 60 h 20 v 35 h 20 z M 15,0 C 6.7764862,0 0,6.776486 0,15 l 0,128 c 0,8.22351 6.7764862,15 15,15 l 178,0 c 8.22351,0 15,-6.77649 15,-15 L 208,15 C 208,6.776486 201.22351,0 193,0 L 15,0 z m 0,10 178,0 c 2.85649,0 5,2.143514 5,5 l 0,17 -188,0 0,-17 c 0,-2.856486 2.143514,-5 5,-5 z m 27,5 0,12 4,0 0,-6 6,0 0,-2 -6,0 0,-2 8,0 0,-2 -12,0 z m 16,0 0,12 12,0 0,-2 -8,0 0,-10 -4,0 z m 21,0 -3.8125,3.8125 C 74.400713,19.599287 73.999998,20.54949 74,21.65625 L 74,27 l 4,0 0,-2 4,0 0,2 4,0 0,-5.34375 c -1.4e-5,-1.10676 -0.400729,-2.056963 -1.1875,-2.84375 L 81,15 79,15 z m 11,0 0,5.34375 c -2e-6,1.106774 0.400713,2.05697 1.1875,2.84375 L 95,27 l 2,0 3.8125,-3.8125 c 0.78676,-0.78678 1.18749,-1.736976 1.1875,-2.84375 L 102,15 l -4,0 0,5.375 c -1e-5,0.773446 -0.171234,1.458016 -0.53125,2.03125 C 97.268871,22.726243 96.795889,23.25326 96.0625,24 95.302401,23.266606 94.820306,22.721686 94.59375,22.375 94.207025,21.78842 93.999994,21.112634 94,20.3125 L 94,15 90,15 z m 20,0 c -1.10677,1.3e-5 -2.0638,0.376316 -2.84375,1.15625 C 106.3763,16.93621 106,17.89324 106,19 l 0,4 c 0,1.106773 0.3763,2.063803 1.15625,2.84375 C 107.9362,26.623696 108.89323,27 110,27 l 4,0 c 1.10676,0 2.06379,-0.376304 2.84375,-1.15625 C 117.62368,25.063803 117.99999,24.106773 118,23 l 0,-4 c -1e-5,-1.10676 -0.37632,-2.06379 -1.15625,-2.84375 C 116.06379,15.376316 115.10676,15.000013 114,15 l -4,0 z m 12,0 0,12 4,0 0,-4 1,0 4,4 4,0 -4.09375,-4.09375 c 0.90657,-0.213207 1.63866,-0.679523 2.21875,-1.40625 0.58007,-0.72672 0.87499,-1.566727 0.875,-2.5 -1e-5,-1.10676 -0.37632,-2.06379 -1.15625,-2.84375 C 132.06379,15.376316 131.10676,15.000013 130,15 l -8,0 z m 16,0 0,12 12,0 0,-2 -8,0 0,-4 6,0 0,-2 -6,0 0,-2 8,0 0,-2 -12,0 z m 16,0 0,12 6,0 c 1.65331,0 3.07665,-0.57666 4.25,-1.75 1.17332,-1.17334 1.74999,-2.596674 1.75,-4.25 -1e-5,-1.653314 -0.57668,-3.076646 -1.75,-4.25 C 163.07665,15.576674 161.65331,15.000013 160,15 l -6,0 z m -42,2 c 0.54654,6e-6 1.01285,0.20037 1.40625,0.59375 0.39338,0.3934 0.59374,0.85971 0.59375,1.40625 l 0,4 c -1e-5,0.546553 -0.20037,1.012857 -0.59375,1.40625 C 113.01285,24.799643 112.54654,25 112,25 111.45344,25 110.98713,24.799643 110.59375,24.40625 110.20035,24.012857 109.99999,23.546553 110,23 l 0,-4 c -1e-5,-0.54654 0.20035,-1.01285 0.59375,-1.40625 C 110.98713,17.20037 111.45344,17.000006 112,17 z m 14,0 2,0 c 0.54654,6e-6 1.01285,0.20037 1.40625,0.59375 0.39338,0.3934 0.59374,0.85971 0.59375,1.40625 -1e-5,0.54656 -0.20037,1.012863 -0.59375,1.40625 C 129.01285,20.79965 128.54654,21.000006 128,21 l -2,0 0,-4 z m 32,0 c 1.10677,6e-6 2.06379,0.376316 2.84375,1.15625 0.77993,0.77996 1.15624,1.736983 1.15625,2.84375 -1e-5,1.106773 -0.37632,2.063803 -1.15625,2.84375 C 160.06379,24.623696 159.10677,25 158,25 l 0,-8 z m -78,1 c 0.746736,0.746753 1.224275,1.27377 1.4375,1.59375 0.373363,0.586593 0.56249,1.275727 0.5625,2.0625 L 82,23 l -4,0 0,-1.34375 c -6e-6,-0.786773 0.189121,-1.475907 0.5625,-2.0625 C 78.775709,19.27377 79.253248,18.746753 80,18 z" />
</svg>
