<?xml version="1.0" encoding="UTF-8" standalone="no"?>
<svg
   xmlns:dc="http://purl.org/dc/elements/1.1/"
   xmlns:cc="http://creativecommons.org/ns#"
   xmlns:rdf="http://www.w3.org/1999/02/22-rdf-syntax-ns#"
   xmlns:svg="http://www.w3.org/2000/svg"
   xmlns="http://www.w3.org/2000/svg"
   xmlns:sodipodi="http://sodipodi.sourceforge.net/DTD/sodipodi-0.dtd"
   xmlns:inkscape="http://www.inkscape.org/namespaces/inkscape"
   width="208"
   height="158"
   viewBox="0 0 208 158"
   id="svg2"
   version="1.1"
   inkscape:version="0.48.5 r10040"
   sodipodi:docname="markdown-mark.svg">
  <metadata
     id="metadata12">
    <rdf:RDF>
      <cc:Work
         rdf:about="">
        <dc:format>image/svg+xml</dc:format>
        <dc:type
           rdf:resource="http://purl.org/dc/dcmitype/StillImage" />
        <dc:title></dc:title>
      </cc:Work>
    </rdf:RDF>
  </metadata>
  <defs
     id="defs10" />
  <sodipodi:namedview
     pagecolor="#ffffff"
     bordercolor="#666666"
     borderopacity="1"
     objecttolerance="10"
     gridtolerance="10"
     guidetolerance="10"
     inkscape:pageopacity="0"
     inkscape:pageshadow="2"
     inkscape:window-width="1680"
     inkscape:window-height="987"
     id="namedview8"
     showgrid="false"
     inkscape:snap-nodes="true"
     inkscape:snap-bbox="false"
     inkscape:snap-page="false"
     fit-margin-top="0"
     fit-margin-left="0"
     fit-margin-right="0"
     fit-margin-bottom="0"
     inkscape:zoom="2"
     inkscape:cx="30.365695"
     inkscape:cy="72.000531"
     inkscape:window-x="-8"
     inkscape:window-y="-8"
     inkscape:window-maximized="1"
     inkscape:current-layer="svg2">
    <inkscape:grid
       type="xygrid"
       id="grid2992"
       empspacing="5"
       visible="true"
       enabled="true"
       snapvisiblegridlinesonly="true"
       originx="0px"
       originy="0px" />
  </sodipodi:namedview>
  <path
     style="font-size:medium;font-style:normal;font-variant:normal;font-weight:normal;font-stretch:normal;text-indent:0;text-align:start;text-decoration:none;line-height:normal;letter-spacing:normal;word-spacing:normal;text-transform:none;direction:ltr;block-progression:tb;writing-mode:lr-tb;text-anchor:start;baseline-shift:baseline;color:#000000;fill:#000000;fill-opacity:1;stroke:none;stroke-width:10;marker:none;visibility:visible;display:inline;overflow:visible;enable-background:accumulate;font-family:Sans;-inkscape-font-specification:Sans"
     d="M 15,0 C 6.7764862,0 0,6.776486 0,15 l 0,128 c 0,8.22351 6.7764862,15 15,15 l 178,0 c 8.22351,0 15,-6.77649 15,-15 L 208,15 C 208,6.776486 201.22351,0 193,0 z"
     id="path3025" />
  <path
     style="font-size:medium;font-style:normal;font-variant:normal;font-weight:normal;font-stretch:normal;text-indent:0;text-align:start;text-decoration:none;line-height:normal;letter-spacing:normal;word-spacing:normal;text-transform:none;direction:ltr;block-progression:tb;writing-mode:lr-tb;text-anchor:start;baseline-shift:baseline;color:#000000;fill:#ffffff;fill-opacity:1;stroke:none;stroke-width:10;marker:none;visibility:visible;display:inline;overflow:visible;enable-background:accumulate;font-family:Sans;-inkscape-font-specification:Sans"
     d="m 15,10 c -2.856486,0 -5,2.143514 -5,5 l 0,22 c 0,-2.85649 2.143514,-5 5,-5 l 178,0 c 2.85649,0 5,2.14351 5,5 l 0,-22 c 0,-2.856486 -2.14351,-5 -5,-5 z"
     id="rect4"
     inkscape:connector-curvature="0"
     sodipodi:nodetypes="sscsscsss" />
  <path
     d="M 30,128 V 60 H 50 L 70,85 90,60 h 20 v 68 H 90 V 89 L 70,114 50,89 v 39 z m 125,0 -30,-33 h 20 V 60 h 20 v 35 h 20 z"
     id="path6"
     inkscape:connector-curvature="0"
     style="fill:#ffffff" />
  <g
     style="font-size:24px;font-style:normal;font-variant:normal;font-weight:normal;font-stretch:normal;line-height:125%;letter-spacing:0px;word-spacing:0px;fill:#000000;fill-opacity:1;stroke:none;font-family:Atari Classic Extrasmooth;-inkscape-font-specification:Atari Classic Extrasmooth"
     id="text2994"
     transform="matrix(0.66666667,0,0,0.66666667,33.333333,-68.333334)">
    <path
       d="m 31,128 -12,0 0,3 9,0 0,3 -9,0 0,9 -6,0 0,-18 18,0 z"
       id="path2999"
       inkscape:connector-curvature="0"
       style="fill:#000000" />
    <path
       d="m 55,143 -18,0 0,-18 6,0 0,15 12,0 z"
       id="path3001"
       inkscape:connector-curvature="0"
       style="fill:#000000" />
    <path
       d="m 79,143 -6,0 0,-3 -6,0 0,3 -6,0 0,-8.00977 c -3e-6,-1.66014 0.590084,-3.08031 1.770264,-4.26049 L 68.5,125 l 3,0 5.729736,5.72974 c 1.180156,1.18018 1.770243,2.60035 1.770264,4.26049 z m -6,-6 0,-2.00977 c -1.5e-5,-1.18016 -0.280044,-2.21019 -0.840088,-3.09008 C 71.840074,131.42018 71.120104,130.62013 70,129.5 c -1.120128,1.12013 -1.840098,1.92018 -2.159912,2.40015 C 67.28002,132.78004 66.999991,133.81007 67,134.99023 L 67,137 z"
       id="path3003"
       inkscape:connector-curvature="0"
       style="fill:#000000" />
    <path
       d="m 103,133.00977 c -2e-5,1.66016 -0.59011,3.08032 -1.77026,4.26049 L 95.5,143 l -3,0 -5.729736,-5.72974 C 85.590084,136.09009 84.999997,134.66993 85,133.00977 L 85,125 l 6,0 0,7.94971 c -9e-6,1.2002 0.29003,2.24024 0.870117,3.12011 0.339834,0.52003 1.079823,1.33009 2.219971,2.43018 1.100084,-1.12011 1.800035,-1.92016 2.099853,-2.40015 C 96.729966,135.24 96.999985,134.22999 97,133.06982 L 97,125 l 6,0 z"
       id="path3005"
       inkscape:connector-curvature="0"
       style="fill:#000000" />
    <path
       d="m 127,137 c -2e-5,1.66016 -0.58498,3.0752 -1.75488,4.24512 C 124.07518,142.41504 122.66014,143 121,143 l -6,0 c -1.66016,0 -3.0752,-0.58496 -4.24512,-1.75488 C 109.58496,140.0752 109,138.66016 109,137 l 0,-6 c 0,-1.66014 0.58496,-3.07518 1.75488,-4.24512 C 111.9248,125.58498 113.33984,125.00002 115,125 l 6,0 c 1.66014,2e-5 3.07518,0.58498 4.24512,1.75488 1.1699,1.16994 1.75486,2.58498 1.75488,4.24512 z m -6,0 0,-6 c -2e-5,-0.81981 -0.29506,-1.52477 -0.88513,-2.11487 C 119.52477,128.29506 118.81981,128.00001 118,128 c -0.81984,1e-5 -1.52479,0.29506 -2.11487,0.88513 -0.5901,0.5901 -0.88514,1.29506 -0.88513,2.11487 l 0,6 c -1e-5,0.81983 0.29503,1.52478 0.88513,2.11487 C 116.47521,139.70496 117.18016,140 118,140 c 0.81981,0 1.52477,-0.29504 2.11487,-0.88513 C 120.70494,138.52478 120.99998,137.81983 121,137 z"
       id="path3007"
       inkscape:connector-curvature="0"
       style="fill:#000000" />
    <path
       d="m 152.5,143 -6,0 -6,-6 -1.5,0 0,6 -6,0 0,-18 12,0 c 1.66014,2e-5 3.07518,0.58498 4.24512,1.75488 1.1699,1.16994 1.75486,2.58498 1.75488,4.24512 -2e-5,1.39991 -0.43508,2.64491 -1.30518,3.73499 -0.87013,1.09009 -1.98512,1.79505 -3.34497,2.11486 z M 145,131 c -2e-5,-0.81981 -0.29506,-1.52477 -0.88513,-2.11487 C 143.52477,128.29506 142.81981,128.00001 142,128 l -3,0 0,6 3,0 c 0.81981,1e-5 1.52477,-0.29503 2.11487,-0.88513 C 144.70494,132.52479 144.99998,131.81984 145,131 z"
       id="path3009"
       inkscape:connector-curvature="0"
       style="fill:#000000" />
    <path
       d="m 175,143 -18,0 0,-18 18,0 0,3 -12,0 0,3 9,0 0,3 -9,0 0,6 12,0 z"
       id="path3011"
       inkscape:connector-curvature="0"
       style="fill:#000000" />
    <path
       d="m 199,134 c -2e-5,2.47999 -0.88003,4.59998 -2.64001,6.35999 C 194.59996,142.12 192.47997,143 190,143 l -9,0 0,-18 9,0 c 2.47997,2e-5 4.59996,0.88002 6.35999,2.64001 1.75998,1.76003 2.63999,3.88002 2.64001,6.35999 z m -6,0 c -2e-5,-1.66015 -0.58498,-3.07518 -1.75488,-4.24512 C 190.07518,128.58498 188.66015,128.00001 187,128 l 0,12 c 1.66015,0 3.07518,-0.58496 4.24512,-1.75488 C 192.41502,137.0752 192.99998,135.66016 193,134 z"
       id="path3013"
       inkscape:connector-curvature="0"
       style="fill:#000000" />
  </g>
</svg>
